<?xml version="1.0" encoding="utf-8"?>
<!-- Generator: Adobe Illustrator 22.1.0, SVG Export Plug-In . SVG Version: 6.00 Build 0)  -->
<svg version="1.1" id="Layer_1" xmlns="http://www.w3.org/2000/svg" xmlns:xlink="http://www.w3.org/1999/xlink" x="0px" y="0px"
	 viewBox="0 0 1920 1080" style="enable-background:new 0 0 1920 1080;" xml:space="preserve">
<style type="text/css">
	.st0{fill:#29ABE2;stroke:#000000;stroke-width:4;stroke-miterlimit:10;}
	.st1{stroke:#000000;stroke-width:4;stroke-miterlimit:10;}
	.st2{fill:#666666;stroke:#000000;stroke-miterlimit:10;}
	.st3{fill:#F2F2F2;stroke:#000000;stroke-width:0.75;stroke-miterlimit:10;}
	.st4{fill:#0071BC;stroke:#000000;stroke-width:4;stroke-miterlimit:10;}
</style>
<ellipse class="st0" cx="934.6" cy="645.8" rx="438.9" ry="326.6"/>
<ellipse class="st1" cx="934.6" cy="361.5" rx="63" ry="22.5"/>
<ellipse class="st0" cx="934.6" cy="149.8" rx="85.4" ry="64.2"/>
<ellipse class="st2" cx="1110.5" cy="600" rx="90.6" ry="154.5"/>
<ellipse class="st3" cx="1110.5" cy="600" rx="54.7" ry="130"/>
<path class="st1" d="M953.6,361.5h-42c4.9-18.9,9.6-44.7,9.4-75.5c-0.2-29.1-4.7-53.7-9.4-72c14,0,28,0,42,0
	c-4.7,17.9-9.2,41.8-9.6,70C943.6,315.7,948.5,342.3,953.6,361.5z"/>
<ellipse class="st2" cx="767.4" cy="599.6" rx="90.6" ry="154.5"/>
<ellipse class="st3" cx="767.4" cy="599.6" rx="54.7" ry="130"/>
<path class="st4" d="M399.2,810c3.4,1.9,8.1,4.3,13.8,7c19,8.9,34.7,13.4,40.9,15c4.5,1.2,21.1,5.5,44.5,7.4
	c18.8,1.6,45.9,1.9,78.5-4.3C563.7,822,546.4,802,531,774.6c-8.8-15.8-34.7-65.8-35.4-128.7c-1.2-107.4,71.8-180.5,86.5-194.7
	c-34.6-8.9-63.1-9.7-82.1-8.9c-14.7,0.6-27,2.4-35,3.8c-20.2,3.5-38.3,9-54,15c-18.2,20.8-29.4,39.9-36,53
	c-56.8,112.2-9.4,229.5-2,247C382.6,783.8,393.1,800.8,399.2,810z"/>
<path class="st4" d="M408,566"/>
<rect x="486" y="370" class="st1" width="23" height="72"/>
<rect x="486" y="345.8" class="st1" width="23" height="10.5"/>
<path class="st4" d="M1360.5,403.1"/>
<path class="st4" d="M1471.6,477c-3.4-1.9-8.1-4.3-13.8-7c-19-8.9-34.7-13.4-40.9-15c-4.6-1.2-20.9-5.4-44.5-7.4
	c-19.5-1.6-48.6-2.1-84.5,4.4c14.9,14.3,34.9,36.7,51.9,68.1c11.2,20.6,33.2,67.4,33.7,125.7c1,104.3-67.3,175.5-82.8,191
	c33.5,8.1,61.4,8.8,80.1,8c15.4-0.7,27.8-2.5,35-3.8c20.2-3.5,38.3-9,54-15c18.2-20.8,29.4-39.9,36-53c56.8-112.2,9.4-229.5,2-247
	C1488.2,503.2,1477.7,486.2,1471.6,477z"/>
<rect x="486" y="323.2" class="st1" width="23" height="10.5"/>
<rect x="1349" y="375.2" class="st1" width="23" height="72"/>
<rect x="1349" y="351" class="st1" width="23" height="10.5"/>
<rect x="1349" y="328.5" class="st1" width="23" height="10.5"/>
<path class="st4" d="M1625,597"/>
</svg>
